# xmcd
#
# Track frame offsets:
#	150
#	17595
#	31559
#	48755
#	61761
#	82038
#	106554
#	123439
#	158098
#	176211
#	190911
#	222453
#	237296
#	260982
#	283249
#
# Disc length: 4009 seconds
#
# Revision: 1
# Processed by: cddbd v1.5.2PL0 Copyright (c) Steve Scherf et al.
# Submitted via: audiograbber 1.83.01
#
DISCID=cb0fa70f
DTITLE=Biber Herrmann - Rainbow Walker
DYEAR=2007
DGENRE=
TTITLE0=Stuck In The Middle Of The Same Old Foolish Game
TTITLE1=Come On In My Kitchen
TTITLE2=Lady Luck
TTITLE3=Rainbow Walker
TTITLE4=Special Rider
TTITLE5=It's Up To You
TTITLE6=You Can't Catch Me
TTITLE7=I Will Find You
TTITLE8=Angels Laid Him Away
TTITLE9=Ride Along
TTITLE10=No One Else Does
TTITLE11=Can't Be Satisfied
TTITLE12=Somebody Will Talking Blues
TTITLE13=Man From Mississippi
TTITLE14=Sweet Prayer To The Moon
EXTD=
EXTT0=
EXTT1=
EXTT2=
EXTT3=
EXTT4=
EXTT5=
EXTT6=
EXTT7=
EXTT8=
EXTT9=
EXTT10=
EXTT11=
EXTT12=
EXTT13=
EXTT14=
PLAYORDER=
